<?xml version="1.0" encoding="utf-8"?>
<!-- Generator: Adobe Illustrator 19.1.0, SVG Export Plug-In . SVG Version: 6.00 Build 0)  -->
<svg version="1.1" xmlns="http://www.w3.org/2000/svg" xmlns:xlink="http://www.w3.org/1999/xlink" x="0px" y="0px" width="150px"
	 height="70px" viewBox="0 0 150 70" style="enable-background:new 0 0 150 70;" xml:space="preserve">
<style type="text/css">
	.st0{fill:url(#SVGID_1_);}
	.st1{fill:url(#SVGID_2_);}
	.st2{fill:url(#SVGID_3_);}
	.st3{fill:#281714;}
	.st4{fill:#EC2214;}
	.st5{fill:#FFFFFF;}
	.st6{fill:url(#SVGID_4_);}
	.st7{fill:url(#SVGID_5_);}
	.st8{fill:#FBCD00;}
	.st9{fill:#D79208;}
	.st10{fill:none;}
</style>
<g id="レイヤー_1">
</g>
<g id="text">
	<g>
		<g>
			<g>
				
					<linearGradient id="SVGID_1_" gradientUnits="userSpaceOnUse" x1="143.6959" y1="-54.0029" x2="230.495" y2="-82.312" gradientTransform="matrix(1 0 0 1 -108.8879 93.6836)">
					<stop  offset="0" style="stop-color:#FDD600"/>
					<stop  offset="0.5276" style="stop-color:#EF7600"/>
					<stop  offset="1" style="stop-color:#D92922"/>
				</linearGradient>
				<path class="st0" d="M71.2,42.7C65.8,46.3,65.4,54,65.4,54c2.2-7.5,20.9-15.8,28.8-15c6.2,0.6,15-2.3,15-2.3s-0.9,2.9-8.1,3.4
					c-19.1-0.3-20.7,7.7-20.7,7.7c2.9-5.5,16.7-6.4,26.2-7.5c9.5-1.1,17.1-8.3,22.4-14.7c5.3-6.4,21-0.2,21-0.2
					c-12.7-7.6-19.3-3.9-19.3-3.9c2.7-1.1,8.8,0.4,8.8,0.4c-5.9-1.1-12.7,0.5-17.9,6.5c-5.1,6-13.2,4.3-15.2-1.5
					c-2-5.8,12.5-5.6,14.1-5.5c1.5,0.1,6.9,0.9,7-1.1c-1.4,0.8-3.8-0.2-3.8-0.2c-19.8-4.8-31.4,6.8-31.4,6.8
					c10-7.7,22.2-6.6,22.2-6.6s-13.7,1.6-18.2,5.4c-4.5,3.8-16.2,10.6-20.7,5.6c-4.5-5,2.6-7.4,6.9-7.4c4.4,0,7.5-1.3,9.5-2.2
					c-1.7,1.9-7.4,3.1-7.4,3.1C93.3,25.1,101,17.1,102,13c1-4.1,6.1-5.6,6.1-5.6c-2.6-0.3-5.4,1.7-6.9,4.7c-1.5,3.1-7.5,5.4-7.5,5.4
					s4.7-2.4,7.9-8.3c3.2-5.9,16.2-4,16.2-4c-16.3-3.9-20,4.5-22.7,8c-2.6,3.5-8.5,4.5-11.3,1.7C79.3,9.8,91,5.8,91,5.8
					c-3.3,0.2-8.4,2.8-8.4,2.8c4.4-5.2,17.2-4.3,17.2-4.3c-17.3-3-28.1,8.2-29.6,13.7c-2.1,7.1-7.8,10.6-7.8,10.6s6.1-2.6,7.9-7.1
					c1.7-4.5,6-7,6-7c-2.5,1-4.8,8-6.2,10.9c-1.4,2.8-5.4,5.8-8.4,6.7c-3,0.9-4.8-2.8-2.3-6.4c2.5-3.6,6.3-9.8,9.6-16.1
					c3.3-6.3,17.1-7.6,17.1-7.6c-12.9-1.7-22.9,4.4-25.8,9.6c-2.9,5.2-10.5,7.3-10.5,7.3c4.1,0.2,10.4-3.5,11.7-5.5
					c1.4-2.1,3.8-4.3,3.8-4.3s-1,0.7-1.3,2c-1.1,3.2-4.7,7.6-11.1,9.2c-15,3.8-16.2,16.7-7.7,25C53.9,53.3,65.7,49.8,71.2,42.7z"/>
			</g>
			
				<linearGradient id="SVGID_2_" gradientUnits="userSpaceOnUse" x1="144.4045" y1="-51.8301" x2="231.2027" y2="-80.139" gradientTransform="matrix(1 0 0 1 -108.8879 93.6836)">
				<stop  offset="0" style="stop-color:#FDD600"/>
				<stop  offset="0.5276" style="stop-color:#EF7600"/>
				<stop  offset="1" style="stop-color:#D92922"/>
			</linearGradient>
			<path class="st1" d="M77.3,36.5c0,0-4.5-6.3-14.5,0.4c-8,5.4-17.9-8.4-6.8-15.2c0,0-5.2,1.4-9.5,4.5c-5.1,3.7-6.7,13.7,2.4,18.8
				c0,0-4.6-6.1-2.7-9.1c0,0,3.9,14.6,13.9,11.5C70,44.2,64.2,35,77.3,36.5z"/>
		</g>
		<g>
			
				<linearGradient id="SVGID_3_" gradientUnits="userSpaceOnUse" x1="103.1554" y1="-24.6863" x2="160.9641" y2="-45.1669" gradientTransform="matrix(0.9954 -9.550000e-02 9.550000e-02 0.9954 -93.722 88.797)">
				<stop  offset="0" style="stop-color:#FDD600"/>
				<stop  offset="0.5276" style="stop-color:#EF7600"/>
				<stop  offset="1" style="stop-color:#D92922"/>
			</linearGradient>
			<path class="st2" d="M10.4,33.2c0,0-13.1,9.3-9.9,21.1C2,59.9,3.8,63.2,8.3,64c-3.6-2.6-7-8.5-2.7-15.7c8.2-12.7,19-7.2,19-7.2
				c-5.8-1.6-12.7,1.7-16.1,8.5c-1.9,3.8-1.9,6.8-0.9,9c0-1.8,0.9-5.9,4.8-7c4.8-1.3,7.6,6,4.5,8.9c-2.3,2.1-5.3,1.5-6.7,1
				c2.6,1.7,6,1.8,8.2,0.7c5.7-2.9,10.3-0.6,12.5,2.1c0.4,0.7,0.9,1,1.3,1.1c-0.9-0.3-2.8-0.9-4.2-1.9c-1.9-1.3-8.3-0.8-11.5,2.4
				c0,0,6.9-3.1,11.3,0.4c4.5,3.6,14.9,3,23.7-8c0,0-10.8,8.4-16.1,3.9c-5.2-4.4-10.6-8.3-13.9-10.4c-3.3-2-3.3-6.9-0.7-7.9
				c2.6-1,6.6-0.7,8.8,1.2c1.9,1.7,5.7,6.2,8.1,6.8c-1.4-0.1-4.2-0.7-6.4-3.1c-3.1-3.4-8.7-2-8.7-2s5.6-0.2,10,5.6
				c2.3,3.3,9.4,6.4,17.2,2.8l-0.7-1.2c-1.2,0.3-2.4,0.3-3.5-0.2c0,0,1.3-0.2,3-0.7L48,51.9c-2.4-0.1-4.6-1.3-4.1-5.3
				c0.1-0.5,0.2-1.1,0.4-1.5l-3.8-7.1c-0.4,0.3-0.8,0.6-1.3,1c-3.1,2.7-9.2,4.9-7.9-2.7c0.5-2.9,2.6-4.7,5.1-5.9l-4-7.4
				c-6.4,1.8-14,1.9-16.6-1.4c0,0,1.5,3.4,4.2,5.3C12.6,24,6.5,27,1.8,37.5C1.8,37.5,6.5,30.5,10.4,33.2z"/>
		</g>
		<path class="st3" d="M142.9,31.6c-0.3-1.2-1.6-2.7-2.2-3.3c0-0.9-0.2-3.3-2.1-5.2c0,0,0,0-0.1-0.1c-1.1-1-3-1.3-3.9-1.5
			c-0.2-0.7-0.7-1.8-1.6-3c-1.2-1.6-3.5-3.5-7.4-3.9c-0.4-1.3-1.4-4-2.9-5c-1.1-0.8-4.6-1.8-5.4-2l-3.2-2.1
			c-0.5-0.3-0.9-0.5-1.3-0.5c-0.6,0-1.6,0.3-1.8,2.4c-0.1,0.8,0.1,2.7,1,4.4c0.7,1.3,2.2,3,4.9,3.6c0,0.2,0.1,0.3,0.1,0.5
			c-0.5,0.3-1.2,0.7-1.9,1.3c-1,1-2.3,2.6-2.5,5c-0.3-0.5-0.6-1.2-0.6-2.1c-0.1-1.9-0.9-3.2-2-3.2c-0.3,0-0.6,0.1-1,0.4
			c-0.6-0.9-1.8-2.1-3.5-2.4c-1.1-0.2-2.1,0.3-2.3,1.3c-0.3,1.2,0.3,3.1,2.5,4.7c0,0.4,0,0.8,0.3,1.2c0.1,0.2,0.2,0.3,0.4,0.4
			c0,0.2,0.1,0.5,0.1,0.8c-0.5,0.1-1.2,0.3-1.8,0.6c-0.9-0.9-2.4-1.7-4-1.7c-1.3,0-3.1,0.5-4.7,2.9c-0.2-0.8-0.7-1.6-1.8-1.6
			c-0.3,0-0.7,0.1-1.1,0.3c-0.9,0.4-1.8,1.6-2,3.2c-0.1,1.4,0.3,3.5,3.2,5.4c2.3,1.6,6,3.5,14.2,3.5l0.2,0c3.5,0,5.8-0.5,6.8-1.4
			h1.5c0.1,0.2,0.3,0.5,0.6,0.7c0,0.3,0.2,0.5,0.3,0.7c0.4,0.5,1,0.7,1.8,0.7c0.3,0,0.6,0,0.8-0.1c0.2,0.1,0.5,0.1,0.8,0.1
			c0.9,0,1.9-0.6,2.5-1.5c0.3,0.2,0.7,0.6,0.9,0.8c0,0,0.1,0.1,0.1,0.1c0.2,0.2,1,0.7,3.2,1c0,0,0,0,0.1,0c0.2,0,0.4,0,0.6,0
			c2.7,0,4.1-1.3,4.8-2.4c0.6-1,0.8-2.1,0.7-2.8c0-0.1,0.1-0.1,0.1-0.2c0.1-0.2,0.1-0.4,0.1-0.8c0.4-0.3,0.9-0.6,1.2-0.9
			c0.1,0,0.2,0.1,0.3,0.1c0.4,1,1.6,3,4.4,3.6c0.4,0.1,0.7,0.1,0.9,0.1c0.6,0,1.1-0.2,1.4-0.6C143.1,32.7,143,32,142.9,31.6z"/>
		<g>
			<path class="st4" d="M141.9,37.7c-0.2-0.3-0.5-0.6-0.8-0.8c0,0,0,0,0,0c-0.2-0.3-0.5-0.6-0.8-0.8c0,0,0,0,0,0
				c-0.6-0.9-1.6-1.4-2.8-1.4h-10c-1,0-2,0.4-2.8,1c-0.6-0.6-1.5-1-2.5-1h-10.6c-1,0-2,0.4-2.8,1c-0.6-0.6-1.5-1-2.5-1l-4.4,0
				c-0.1,0-0.3,0-0.4,0h-5.6c-0.1,0-0.1,0-0.2,0c-0.1-0.7-0.4-1.4-0.8-2c-0.2-0.3-0.5-0.5-0.7-0.7c0,0,0-0.1-0.1-0.1
				c-0.2-0.3-0.5-0.5-0.7-0.7c0,0,0-0.1-0.1-0.1c-0.7-0.9-1.7-1.4-2.8-1.4c-3.2,0-5.7,3.8-6.9,6c-0.6-0.7-1.5-1-2.5-1H70.5
				c-1,0-1.9,0.4-2.8,1c-0.6-0.6-1.5-1-2.4-1H58c0.4-0.5,0.7-1,1-1.6c0.5-0.9,0.9-1.9,1.1-2.7c0.4-0.1,0.9-0.3,1.2-0.6
				c1.2-1.3,2.8-5.5,3.3-8.1c0.4-0.2,0.7-0.5,0.9-0.7c0.4-0.5,0.9-1.4,0.7-2.7c-0.1-1.1-0.7-1.9-1.4-2.4c-0.2-0.3-0.4-0.5-0.7-0.7
				c-0.2-0.3-0.5-0.7-0.9-1c-0.2-0.3-0.5-0.5-0.8-0.8c-0.8-1-2.2-2-4.8-2.5c-1-0.2-2.1-0.3-3.2-0.3c-2.2,0-4.3,0.4-5.9,0.6
				c-0.5,0.1-1,0.2-1.4,0.2c-0.1-0.1-0.3-0.3-0.5-0.4c-0.2-0.3-0.5-0.6-0.9-0.9c-0.4-0.2-0.8-0.3-1.2-0.3c-1.2,0-2.1,0.9-2.7,1.5
				c-0.1,0.1-0.2,0.2-0.2,0.2c0,0-0.1,0-0.1,0c-0.2,0-0.5,0-0.7,0l-0.4,0c-0.1,0-0.2,0-0.2,0c-0.1,0-0.2,0-0.3,0c0,0,0,0,0,0
				c-0.3,0-0.8,0-1.4,0.1c-0.2-0.2-0.3-0.3-0.6-0.5c-0.2-0.3-0.5-0.6-0.8-0.8c-0.5-0.8-1.4-1.3-2.3-1.3c-1.3,0-2.4,0.8-2.9,1.6
				l-1.1,1.6l-0.4,0.3c-0.4,0.3-0.6,0.6-0.8,1.1l-0.3,0.8c-0.8,0.6-1.2,1.3-1.6,2h-0.6c-0.9,0-1.7,0.6-2,1.4l-0.4,1
				c-0.3,0.9,0,1.9,0.7,2.4l0.2,0.2c0,0,0,0,0,0.1l-1.9,5.3c-0.2,0.4-0.2,0.9-0.1,1.3l-6.3,17.7c-0.1,0.1-0.2,0.2-0.3,0.3h-0.6
				c-0.9,0-1.7,0.5-2,1.4c-0.2,0.6-0.9,2.5,0,4.2c0.1,0.2,0.2,0.3,0.3,0.5c-0.1,0.5,0.1,1,0.4,1.5c0.2,0.3,0.4,0.5,0.7,0.6
				c0,0.1,0.1,0.1,0.1,0.2c0,0.1,0.1,0.1,0.2,0.2L16,55.2c-0.2,0.6-0.1,1.4,0.3,1.9c0.2,0.3,0.4,0.5,0.7,0.6c0,0.1,0.1,0.1,0.1,0.2
				c0.2,0.3,0.4,0.5,0.7,0.6c0,0.1,0.1,0.1,0.1,0.2c0.4,0.6,1,0.9,1.7,0.9h114.3c0.9,0,1.7-0.6,2-1.4l0.6-1.6c0.2-0.5,0.2-0.9,0-1.4
				c0.6-0.5,1.1-1.1,1.4-1.8l0.2-0.5c0.1-0.3,0.2-0.7,0.1-1.1c0.3-0.3,0.5-0.7,0.6-1l3.6-9.8C142.7,39.8,142.6,38.6,141.9,37.7z
				 M41,31c-0.2,0-0.3,0-0.4,0c0-0.3,0.1-0.7,0.2-1.1l1-2.6c0.1,0,0.1-0.1,0.2-0.1c0.3-0.3,0.7-0.5,1-0.7c0.2-0.1,0.4-0.1,0.5-0.1
				c0.2,0,0.4,0,0.6,0.1c0.4,0.1,0.9,0.2,1.5,0.1c0.1,0,0.2,0,0.3-0.1C44.3,29.3,42.7,30.7,41,31z M47.5,23
				c-0.2-0.4-0.4-0.8-0.7-1.2c-0.1-0.1-0.3-0.3-0.5-0.5c0,0,0-0.1-0.1-0.1c0.4-0.1,0.9-0.2,1.5-0.2c0.1,0,0.1,0,0.2,0
				C47.8,21.6,47.7,22.2,47.5,23z"/>
			<path class="st3" d="M34.8,9.1c1,0,1.8,0.5,2.3,1.3c0.3,0.2,0.6,0.5,0.8,0.8c0.2,0.1,0.4,0.3,0.6,0.5c0.6,0,1.1-0.1,1.4-0.1
				c0,0,0,0,0,0c0.1,0,0.2,0,0.3,0c0.1,0,0.1,0,0.2,0c0,0,0,0,0,0l0.4,0c0.3,0,0.5,0,0.7,0c0.1,0,0.1,0,0.1,0
				c0.1-0.1,0.2-0.2,0.2-0.2c0.6-0.6,1.4-1.5,2.7-1.5c0.4,0,0.8,0.1,1.2,0.3c0.4,0.2,0.7,0.6,0.9,0.9c0.2,0.1,0.4,0.3,0.5,0.4
				c0.4-0.1,0.9-0.1,1.4-0.2c1.6-0.3,3.7-0.6,5.9-0.6c1.2,0,2.2,0.1,3.2,0.3c2.6,0.5,4,1.5,4.8,2.5c0.3,0.3,0.6,0.5,0.8,0.8
				c0.4,0.3,0.7,0.7,0.9,1c0.3,0.2,0.5,0.5,0.7,0.7c0.7,0.5,1.3,1.3,1.4,2.4c0.2,1.3-0.3,2.2-0.7,2.7c-0.2,0.2-0.5,0.5-0.9,0.7
				c-0.5,2.7-2.1,6.8-3.3,8.1c-0.3,0.3-0.7,0.6-1.2,0.6c-0.3,0.8-0.6,1.8-1.1,2.7c-0.3,0.6-0.7,1.1-1,1.6h7.3c1,0,1.8,0.3,2.4,1
				c0.8-0.6,1.8-1,2.8-1h10.8c1,0,1.9,0.4,2.5,1c1.2-2.2,3.7-6,6.9-6c1.1,0,2.1,0.5,2.8,1.4c0,0,0,0.1,0.1,0.1
				c0.3,0.2,0.5,0.4,0.7,0.7c0,0,0,0.1,0.1,0.1c0.3,0.2,0.5,0.4,0.7,0.7c0.4,0.6,0.7,1.3,0.8,2c0.1,0,0.1,0,0.2,0h5.6
				c0.1,0,0.3,0,0.4,0l4.4,0c1,0,1.8,0.4,2.5,1c0.8-0.6,1.8-1,2.8-1h10.6c1,0,1.8,0.4,2.5,1c0.8-0.6,1.8-1,2.8-1h10
				c1.2,0,2.2,0.5,2.8,1.4c0,0,0,0,0,0c0.3,0.2,0.6,0.5,0.8,0.8c0,0,0,0,0,0c0.3,0.2,0.6,0.5,0.8,0.8c0.6,0.9,0.8,2.1,0.4,3.3
				l-3.6,9.8c-0.1,0.4-0.3,0.7-0.6,1c0.1,0.4,0,0.7-0.1,1.1l-0.2,0.5c-0.3,0.8-0.7,1.4-1.4,1.8c0.1,0.4,0.1,0.9,0,1.4l-0.6,1.6
				c-0.3,0.8-1.1,1.4-2,1.4H19.6c-0.7,0-1.3-0.3-1.7-0.9c0-0.1-0.1-0.1-0.1-0.2c-0.3-0.2-0.5-0.4-0.7-0.6c0-0.1-0.1-0.1-0.1-0.2
				c-0.3-0.2-0.5-0.4-0.7-0.6c-0.4-0.6-0.5-1.3-0.3-1.9l0.2-0.6c-0.1-0.1-0.1-0.1-0.2-0.2c0-0.1-0.1-0.1-0.1-0.2
				c-0.3-0.2-0.5-0.4-0.7-0.6c-0.3-0.4-0.4-1-0.4-1.5c-0.1-0.1-0.2-0.3-0.3-0.5c-0.8-1.7-0.2-3.6,0-4.2c0.3-0.8,1.1-1.4,2-1.4h0.6
				c0.1-0.1,0.2-0.2,0.3-0.3l6.3-17.7c-0.1-0.4-0.1-0.9,0.1-1.3l1.9-5.3c0,0,0,0,0-0.1l-0.2-0.2c-0.8-0.6-1.1-1.5-0.7-2.4l0.4-1
				c0.3-0.8,1.1-1.4,2-1.4h0.6c0.3-0.7,0.8-1.4,1.6-2l0.3-0.8c0.1-0.4,0.4-0.8,0.8-1.1l0.4-0.3l1.1-1.6C32.3,10,33.5,9.1,34.8,9.1
				 M47.5,23c0.3-0.8,0.4-1.4,0.4-1.9c-0.1,0-0.1,0-0.2,0c-0.5,0-1,0.1-1.5,0.2c0,0,0,0.1,0.1,0.1c0.3,0.2,0.5,0.4,0.5,0.5
				C47.1,22.2,47.3,22.6,47.5,23 M40.6,31c0.1,0,0.3,0,0.4,0c1.7-0.3,3.3-1.7,4.8-4.5c-0.1,0-0.2,0.1-0.3,0.1c-0.1,0-0.3,0-0.4,0
				c-0.4,0-0.8-0.1-1-0.1c-0.2-0.1-0.4-0.1-0.6-0.1c-0.1,0-0.3,0-0.5,0.1c-0.3,0.1-0.7,0.4-1,0.7c-0.1,0.1-0.1,0.1-0.2,0.1l-1,2.6
				C40.7,30.3,40.6,30.7,40.6,31 M34.8,7.7c-1.8,0-3.4,1.1-4.1,2.2l-0.9,1.4l-0.2,0.2c-0.6,0.4-1.1,1-1.3,1.8l-0.1,0.4
				c-0.5,0.4-0.8,0.9-1.2,1.4c-1.4,0.1-2.6,1-3.1,2.3l-0.4,1c-0.4,1.2-0.2,2.6,0.7,3.6l-1.6,4.4c-0.2,0.5-0.3,1.1-0.2,1.7l-5.9,16.7
				c-1.4,0.1-2.6,1-3.1,2.3c-0.3,0.7-1.1,3.2,0,5.3c0,0.1,0.1,0.1,0.1,0.2c0,0.7,0.2,1.3,0.6,1.9c0.1,0.2,0.3,0.4,0.5,0.6
				c-0.3,1-0.1,2.1,0.5,2.9c0.2,0.3,0.5,0.6,0.8,0.8c0.2,0.3,0.5,0.6,0.8,0.8c0.7,0.9,1.7,1.5,2.9,1.5h114.3c1.5,0,2.8-0.9,3.3-2.3
				l0.6-1.6c0.2-0.4,0.2-0.9,0.2-1.3c0.5-0.5,0.9-1.2,1.2-1.9l0.2-0.5c0.1-0.4,0.2-0.8,0.2-1.1c0.2-0.3,0.4-0.6,0.5-1l3.6-9.8
				c0.6-1.6,0.4-3.3-0.5-4.6c-0.3-0.4-0.6-0.7-0.9-1c-0.2-0.3-0.5-0.6-0.8-0.8c-0.9-1.2-2.3-1.8-3.8-1.8h-10c-0.9,0-1.9,0.2-2.7,0.7
				c-0.8-0.5-1.6-0.7-2.6-0.7h-10.6c-0.9,0-1.8,0.2-2.7,0.7c-0.7-0.4-1.6-0.7-2.5-0.7l-4.3,0c-0.2,0-0.3,0-0.5,0h-4.7
				c-0.2-0.5-0.5-1-0.8-1.5c-0.2-0.3-0.5-0.6-0.8-0.9c-0.2-0.3-0.5-0.6-0.8-0.8c-0.9-1.2-2.3-1.9-3.9-1.9c-3.3,0-5.8,3-7.4,5.4
				c-0.6-0.3-1.3-0.4-2-0.4H70.5c-0.9,0-1.8,0.2-2.7,0.7c-0.7-0.4-1.6-0.7-2.5-0.7h-4.8c0.3-0.5,0.5-1.1,0.7-1.8
				c0.4-0.2,0.8-0.5,1.1-0.8c1.4-1.6,2.9-5.6,3.5-8.2c0.3-0.2,0.5-0.4,0.7-0.7c0.6-0.7,1.3-1.9,1-3.8c-0.2-1.3-0.8-2.4-1.8-3.2
				c-0.2-0.3-0.4-0.5-0.7-0.7c-0.3-0.3-0.6-0.7-0.9-1c-0.2-0.3-0.5-0.5-0.8-0.8c-1.2-1.4-3-2.4-5.5-2.9c-1.1-0.2-2.3-0.3-3.5-0.3
				c-2.3,0-4.5,0.4-6.1,0.7c-0.2,0-0.4,0.1-0.7,0.1c-0.3-0.4-0.7-0.7-1.2-1c-0.6-0.3-1.2-0.5-1.9-0.5c-1.7,0-2.8,1-3.5,1.8l-0.2,0
				l-0.4,0c0,0-0.1,0-0.1,0c-0.1,0-0.1,0-0.2,0c-0.1,0-0.2,0-0.3,0c-0.2,0-0.5,0-0.9,0c0,0,0,0-0.1-0.1c-0.2-0.3-0.5-0.6-0.8-0.8
				C37.3,8.3,36.1,7.7,34.8,7.7L34.8,7.7z M43,28.1c0.1-0.1,0.2-0.1,0.3-0.2c-0.1,0.1-0.2,0.3-0.3,0.4L43,28.1L43,28.1z"/>
		</g>
		<path class="st5" d="M139.7,36.5c-0.5-0.7-1.3-1.1-2.2-1.1h-10c-1.1,0-2.1,0.5-2.9,1.3c0-0.1-0.1-0.1-0.1-0.2
			c-0.5-0.7-1.3-1.1-2.2-1.1h-10.6c-1,0-2.1,0.5-2.9,1.3c0-0.1-0.1-0.1-0.1-0.2c-0.5-0.7-1.3-1.1-2.2-1.1c0,0,0,0,0,0l-4.4,0
			c-0.1,0-0.3,0-0.4,0h-5.6c-0.9,0-1.8,0.4-2.5,1c0.2-1.5,0.3-3.6-0.6-4.9c-0.5-0.7-1.3-1.1-2.2-1.1c-3.3,0-5.9,4.9-6.7,6.4
			c-0.1,0-0.2,0.1-0.3,0.1c-0.1-0.1-0.1-0.3-0.2-0.4c-0.5-0.7-1.3-1.1-2.2-1.1H70.5c-1,0-2.1,0.5-2.9,1.3c0-0.1-0.1-0.1-0.1-0.2
			c-0.5-0.7-1.3-1.1-2.2-1.1H54.5c-1.3,0-2.6,0.7-3.4,1.8c-0.1-0.3-0.2-0.5-0.3-0.7c-0.1-0.2-0.3-0.3-0.4-0.5
			c2.4-0.7,4.9-2.1,6.4-4.8c0.6-1.1,1-2.2,1.2-3.1c0,0,0.1,0,0.1,0c0.4,0,0.8-0.2,1-0.5c1.2-1.3,2.8-5.7,3.2-8.1
			c0.5-0.2,0.8-0.5,1-0.7c0.3-0.4,0.7-1.1,0.6-2.2c-0.1-1.1-0.8-1.8-1.6-2.2c-0.4-1-1.6-2.3-4.8-3c-0.9-0.2-2-0.3-3.1-0.3
			c-2.1,0-4.2,0.3-5.8,0.6c-0.9,0.1-1.7,0.3-2.1,0.3c0,0-0.1,0-0.1,0c0,0-0.1,0-0.1,0c0,0,0,0,0-0.1c-0.1-0.3-0.3-1-0.9-1.3
			c-0.3-0.1-0.6-0.2-0.9-0.2c-0.9,0-1.6,0.7-2.2,1.3c-0.1,0.1-0.2,0.3-0.4,0.4c-0.1,0.1-0.1,0.1-0.5,0.1c-0.2,0-0.5,0-0.8,0l-0.1,0
			c-0.1,0-0.2,0-0.2,0c0,0,0,0-0.1,0c-0.1,0-0.2,0-0.2,0c-0.1,0-0.1,0-0.2,0h0c-0.4,0-1.3,0-2.4,0.1c-0.3-0.5-0.6-1.2-0.9-1.6
			c-0.4-0.6-1.1-1-1.8-1c-1.1,0-2,0.8-2.4,1.3l-1.1,1.7l-0.5,0.4c-0.2,0.2-0.4,0.4-0.5,0.7l-0.3,0.9c0,0,0,0.1,0,0.1
			c-0.9,0.7-1.4,1.5-1.7,2.3h-1c-0.6,0-1.1,0.4-1.3,0.9l-0.4,1c-0.2,0.6,0,1.2,0.5,1.6l0.7,0.5l-2.1,5.8c-0.1,0.4-0.1,0.8,0,1.1
			l-6.4,18.1c-0.2,0.1-0.4,0.3-0.6,0.6h-0.9c-0.6,0-1.1,0.4-1.3,0.9c-0.1,0.4-0.8,2.2,0,3.7c0.1,0.2,0.2,0.4,0.4,0.6
			c-0.1,0.4-0.1,0.9,0.2,1.3c0.3,0.4,0.7,0.6,1.1,0.6h0.3l-0.6,1.6c-0.2,0.4-0.1,0.9,0.2,1.3c0.3,0.4,0.7,0.6,1.1,0.6h114.3
			c0.6,0,1.1-0.4,1.3-0.9l0.6-1.6c0.2-0.4,0.1-0.9-0.2-1.3c0,0-0.1-0.1-0.1-0.1c0.8-0.4,1.3-1,1.6-1.8l0.2-0.5c0.1-0.3,0.1-0.7,0-1
			c0.3-0.3,0.6-0.7,0.7-1.1l3.6-9.8C140.4,38.2,140.3,37.2,139.7,36.5z M42.7,46.8h-3.3l0.4-1.1c0,0,0,0,0,0h3.3L42.7,46.8z
			 M47.7,24.2c-2.1,4.7-4.2,7.1-6.6,7.5c-0.2,0-0.4,0.1-0.7,0.1c-0.6,0-1.4-0.1-1.8-0.8c-0.5-0.7-0.5-1.7-0.1-2.9l1-2.9
			c0.1-0.1,0.2-0.1,0.3-0.2c0.4-0.3,0.8-0.6,1.2-0.8c0.3-0.1,0.5-0.2,0.8-0.2c0.3,0,0.5,0.1,0.8,0.1c0.3,0.1,0.5,0.1,0.8,0.1
			c0.1,0,0.2,0,0.3,0c0.7-0.1,1.2-0.6,1.4-1.2c0.3-0.8,0-1.7-0.6-2.4c-0.4-0.5-1.1-0.8-2-0.9c0.8-0.5,1.9-1,3.4-1
			c1.1,0,1.8,0.3,2.2,0.9C48.8,20.5,48.6,22.2,47.7,24.2z M49.1,45.2c-0.1,0-0.1,0-0.2,0l0.6-1.6l0.2-0.6c0.2,0.5,0.6,0.9,1.2,1.3
			c0.3,0.2,0.9,0.5,1.7,1H49.1z M65.1,45.2c-0.5,0-0.9,0.2-1.1,0.6c-0.2-0.2-0.4-0.4-0.7-0.6c-0.2-0.1-0.5-0.3-1-0.6
			c0,0-0.1,0-0.1-0.1c-1.2-0.7-3.2-1.9-4.2-2.5h1.2c0,0.2,0.1,0.5,0.2,0.7c0.3,0.4,0.7,0.6,1.1,0.6h4.7c0.2,0,0.4,0,0.6-0.1
			c0.2,0.4,0.6,0.7,1,1c0.3,0.2,0.9,0.5,1.7,1H65.1z M79.9,45.8c-0.2-0.2-0.4-0.4-0.7-0.6c-0.2-0.1-0.5-0.3-1-0.6c0,0-0.1,0-0.1-0.1
			c-1.2-0.7-3.2-1.9-4.2-2.5h1.2c0,0.2,0.1,0.5,0.2,0.7c0.3,0.4,0.7,0.6,1.2,0.6h4.3L79.9,45.8z M100.9,46.6
			c-0.1,0.3-0.5,0.6-0.7,0.6h-1.7l1.5-4c0.1-0.3,0.5-0.6,0.7-0.6h1.7L100.9,46.6z M114.2,52.9h-3.6l3.6-9.8c0.1-0.3,0.5-0.6,0.7-0.6
			h3.1L114.2,52.9z M132.2,45.7h-2l0.9-2.6c0.1-0.3,0.5-0.6,0.7-0.6h1.5L132.2,45.7z"/>
		<g>
			<g>
				<g>
					<path class="st3" d="M46.5,47.5l1.6-4.4l1.6-4.4c0.4-1-0.2-1.9-1.2-1.9H38.1c-1,0-2.2,0.8-2.5,1.9l-0.1,0.2h10.1
						c0.8,0,1.2,0.7,0.9,1.5l-0.3,0.8h-9.8c-1,0-2.2,0.8-2.5,1.9l-2.7,7.5c-0.4,1,0.2,1.9,1.2,1.9h6.7h1H41c0.5,0,1-0.2,1.4-0.5
						c0.2,0.3,0.6,0.5,1.1,0.5h2.1l1.5-4.1C46.7,48.4,46.3,48.1,46.5,47.5z M43.7,48.2h-5.3c-0.5,0-0.8-0.4-0.6-1l0.7-2
						c0.2-0.5,0.8-0.9,1.3-0.9h5.3L43.7,48.2z"/>
				</g>
				<g>
					<path class="st3" d="M62.5,46.4c-0.2-0.1-0.6-0.4-1.1-0.7l0,0c0,0-4.3-2.5-4.8-2.8c-0.4-0.3-0.8-0.4-0.6-0.9l0-0.1l0.2-0.4
						l0-0.1c0.2-0.4,0.6-0.7,1-0.7h3c0.4,0,0.6,0.3,0.5,0.7l-0.2,0.5h4.7l1.2-3.2c0.4-1-0.2-1.9-1.2-1.9H54.5c-1,0-2.2,0.8-2.5,1.9
						l-0.6,1.7L51,41.2l0,0c-0.2,0.7-0.3,1.2,0.6,1.8c0.9,0.6,6.4,3.8,6.7,3.9c0.3,0.1,0.6,0.5,0.4,0.8l0,0
						c-0.2,0.3-0.6,0.6-0.9,0.6h-3.2c-0.4,0-0.6-0.3-0.5-0.7l0.4-1h-5.4l-1.4,4c-0.4,1,0.2,1.9,1.2,1.9h10.8c1,0,2.2-0.8,2.5-1.9
						l0.6-1.5l0.3-0.8l0,0C63.3,47.5,63.4,47,62.5,46.4z"/>
				</g>
				<g>
					<path class="st3" d="M78.5,46.4c-0.2-0.1-0.6-0.4-1.1-0.7l0,0c0,0-4.3-2.5-4.8-2.8c-0.4-0.3-0.8-0.4-0.6-0.9l0-0.1l0.2-0.4
						l0-0.1c0.1-0.4,0.6-0.7,1-0.7h3c0.4,0,0.6,0.3,0.5,0.7l-0.2,0.5h4.7l1.2-3.2c0.4-1-0.2-1.9-1.2-1.9H70.5c-1,0-2.2,0.8-2.5,1.9
						l-0.6,1.7L67,41.2l0,0c-0.2,0.7-0.3,1.2,0.6,1.8c0.9,0.6,6.4,3.8,6.7,3.9c0.3,0.1,0.6,0.5,0.4,0.8l0,0
						c-0.2,0.3-0.6,0.6-0.9,0.6h-3.2c-0.4,0-0.6-0.3-0.5-0.7l0.4-1h-5.4l-1.4,4c-0.4,1,0.2,1.9,1.2,1.9h10.8c1,0,2.2-0.8,2.5-1.9
						l0.6-1.5l0.3-0.8l0,0C79.3,47.5,79.3,47,78.5,46.4z"/>
				</g>
				<g>
					<g>
						<path class="st3" d="M122.2,36.8h-10.6c-1,0-2.2,0.8-2.5,1.9l-4.3,11.9c-0.4,1,0.2,1.9,1.2,1.9h3.3l3.6-9.8
							c0.3-0.8,1.2-1.5,2-1.5h3.6c0.8,0,1.2,0.7,0.9,1.5l-3.6,9.8h0.7c1,0,2.2-0.8,2.5-1.9l4.3-11.9
							C123.8,37.6,123.2,36.8,122.2,36.8z"/>
					</g>
				</g>
				<g>
					<path class="st3" d="M106.4,36.8l-4.5,0c-0.1,0-0.2,0-0.3,0h-5.6c-1,0-2.2,0.8-2.5,1.9l-4.3,11.9c-0.4,1,0.2,1.9,1.2,1.9l4.5,0
						c0.1,0,0.2,0,0.3,0h5.6c1,0,2.2-0.8,2.5-1.9l4.3-11.9C107.9,37.6,107.4,36.8,106.4,36.8z M103.9,42.6l-1.6,4.4
						c-0.3,0.8-1.2,1.5-2,1.5H98c-0.8,0-1.2-0.7-0.9-1.5l1.6-4.4c0.3-0.8,1.2-1.5,2-1.5h2.2C103.7,41.1,104.2,41.8,103.9,42.6z"/>
				</g>
				<g>
					<g>
						<path class="st3" d="M128.2,50.6c-0.9,0-1.1-0.4-0.8-1.1l0-0.1h6.4c0.5,0,1.1-0.4,1.3-1l3.6-9.8c0.4-1-0.2-1.9-1.2-1.9h-10
							c-1,0-2.2,0.8-2.5,1.9l-4.3,11.9c-0.4,1,0.2,1.9,1.2,1.9h10.1c1,0,2-0.3,2.4-1.4l0.2-0.5H128.2z M129.9,42.6
							c0.3-0.8,1.2-1.5,2-1.5h2c0.8,0,1.2,0.7,0.9,1.5l-1.6,4.5h-5L129.9,42.6z"/>
					</g>
				</g>
				<g>
					<g>
						<path class="st4" d="M87,51.1h-7.1c-0.2,0-0.4,0.2-0.5,0.4l0,0.1L79.2,52L79,52.4h7.9L87,52l0.1-0.4l0-0.1
							C87.3,51.3,87.2,51.1,87,51.1z"/>
					</g>
					<g>
						<path class="st4" d="M91.9,38.6l0-0.1c0.1-0.2,0-0.4-0.2-0.4h-7.1c-0.2,0-0.4,0.2-0.5,0.4l0,0.1l-4.2,11.4l0,0.1
							c-0.1,0.2,0,0.4,0.2,0.4h7.1c0.2,0,0.4-0.2,0.5-0.4l0-0.1L91.9,38.6z"/>
					</g>
					<g>
						<path class="st4" d="M91.8,37.7h-6.7c0,0,2.8-5.8,5.5-5.8C93.4,31.8,91.8,37.7,91.8,37.7z"/>
					</g>
				</g>
			</g>
			<g>
				<g>
					<g>
						<g>
							<path class="st3" d="M40.5,21c-0.2,0-0.3,0-0.4-0.1c-0.1,0.2-0.2,0.5-0.3,0.7L39,23.9c0.5-0.4,1-0.8,1.6-1c1.6-0.7,2.5,0,3,0
								c0.5-0.1,0.4-0.7,0-1.3C43.1,21.1,41.3,21,40.5,21z"/>
						</g>
						<g>
							<path class="st3" d="M17.3,51.4l1.2-3.2h-1.9C16.6,48.2,15.5,51,17.3,51.4z"/>
						</g>
						<g>
							<polygon class="st3" points="28.4,20.8 26.7,19.6 27.1,18.6 29.2,18.6 							"/>
						</g>
						<g>
							<path class="st3" d="M21.7,46.6l6.4-18.1c0-0.1,0-0.2,0-0.2c0,0-0.1,0-0.1,0h-1.9c0,0-0.1,0-0.1,0l-6.7,18.8H21
								C21.3,47.1,21.6,46.9,21.7,46.6z"/>
						</g>
						<g>
							<path class="st3" d="M36.5,13.6c-0.2-0.4-0.7-1.4-1.1-2c-0.5-0.8-1.6,0-1.8,0.3c-0.3,0.4-1.3,1.9-1.3,1.9l-0.7,0.5l-0.3,0.8
								c0.5-0.3,1.1-0.5,1.9-0.8C34.3,14,35.5,13.8,36.5,13.6z M34.6,12c0.3,0,0.6,0.3,0.6,0.6c0,0.3-0.3,0.6-0.6,0.6
								c-0.3,0-0.6-0.3-0.6-0.6C33.9,12.3,34.2,12,34.6,12z"/>
						</g>
						<polygon class="st3" points="23.7,54.3 25.4,49.6 20.3,49.6 18,55.9 132.3,55.9 132.9,54.3 						"/>
						<path class="st3" d="M33.2,14.8c-3,1-3.5,2.1-4,3.5l-3.4,9.2c-0.1,0.2,0,0.4,0.2,0.4H28c0.4,0,0.6,0.3,0.5,0.7l-6.4,18.1
							c-0.1,0.4-0.6,0.7-1,0.7h-2.3L17,52.4h9l13.9-38.7C38.4,13.7,35.8,14,33.2,14.8z"/>
					</g>
				</g>
				<path class="st3" d="M62.5,16.9c-0.1-1.1-1.4-1.2-1.4-1.2s0.1-1.9-4-2.7c-4.4-0.9-9.3,0.8-10.9,0.7c-1.6-0.1-1.1-1.3-1.6-1.6
					c-0.5-0.3-1.1,0.6-1.7,1.2c-0.6,0.6-1.3,0.5-2.5,0.5c-0.1,0-0.1,0-0.2,0l0,0.1L26.4,52.4H29l5.7-15.9c0.3-0.7,0.3-1.2,1.6-1.2
					c1.2,0,7.5,0,7.5,0c3,0,9.1,0.1,11.8-4.8c1.1-2,1.5-4.4,1.5-4.4l1.1,0.6c1.1-1.2,3-6.8,3-8.3C61.9,18.4,62.7,18.1,62.5,16.9z
					 M49,24.7c-1.8,4.2-4.1,7.8-7.7,8.3c-3.6,0.5-5.3-2.2-4.1-5.5c0,0,1.6-4.3,2.2-6c0.6-1.7,2.6-4.2,6.5-4.2
					C49.9,17.4,50.9,20.5,49,24.7z M54.6,18.9c0.6-0.3,1.4-0.1,1.8,0.4l-2.7,1.3C53.6,19.9,53.9,19.2,54.6,18.9z M55.9,21.7
					c-0.7,0.3-1.4,0.1-1.8-0.4l2.7-1.3C56.9,20.7,56.5,21.4,55.9,21.7z M61.1,17.8c0.1-0.3-0.1-1.4-0.1-1.4c0.1-0.1,0.7,0,0.8,0.6
					C62.1,17.8,61.1,17.8,61.1,17.8z"/>
			</g>
		</g>
		<g>
			<g>
				
					<linearGradient id="SVGID_4_" gradientUnits="userSpaceOnUse" x1="111.5138" y1="-59.3274" x2="111.5138" y2="-56.548" gradientTransform="matrix(1 0 -0.364 1 -42.2657 93.6836)">
					<stop  offset="0" style="stop-color:#FFFFFF"/>
					<stop  offset="1" style="stop-color:#FFFFFF;stop-opacity:0"/>
				</linearGradient>
				<path class="st6" d="M91,32.6c0,0,1.2,1.9,0.3,4.4h-2.7c0,0,1.3-0.1,1.8-1.3c0.5-1.3,0.5-2.9,0.5-2.9S90.8,32.4,91,32.6z"/>
			</g>
			
				<linearGradient id="SVGID_5_" gradientUnits="userSpaceOnUse" x1="129.7013" y1="-55.3067" x2="129.7013" y2="-45.9951" gradientTransform="matrix(1 0 -0.364 1 -60.2188 93.6836)">
				<stop  offset="0" style="stop-color:#FFFFFF"/>
				<stop  offset="1" style="stop-color:#FFFFFF;stop-opacity:0"/>
			</linearGradient>
			<path class="st7" d="M87.8,38.9c0,0,1.9,0,2.4,0c0.4,0,0.7,0.2,0.5,0.8c-0.2,0.5-3.4,9.3-3.4,9.3S89.3,40,87.8,38.9z"/>
		</g>
		<g>
			<g>
				<path class="st3" d="M94.9,31.6c-4.4-3.1-2.6-6.5-1.3-7.1c1.6-0.8,1.6,1,1.6,1s0.5,0.6,1.2,0.7c2.8-5.2,7-2.8,8.2-1.1
					c1.3-1.1,3.1-1,3.1-1s-0.4-1.4-0.3-2.3c-0.7,0-0.8-0.5-0.5-1.2c-3.3-2-3.4-5-1.4-4.7c2.2,0.4,3.3,2.8,3.3,2.8l0.4,0.1
					c0.8-1.6,1.9-0.7,2,1.5c0.1,2.7,2.1,4,2.1,4s-0.1-0.8,0.4-0.7c-0.2-5.3,4.6-7,4.6-7s-0.4-1.1-0.5-1.8c-5.2-0.7-5.9-5.6-5.8-7.2
					c0.1-1.5,0.7-1.9,1.6-1.2l3.3,2.2c0,0,4.1,1.2,5.3,1.9c1.6,1.1,2.7,5.1,2.7,5.1c7.7,0.5,9,6.9,9,6.9s2.7,0.2,4,1.3
					c2,2.1,1.8,4.9,1.8,4.9s1.9,1.9,2.2,3.2c0.2,0.9,0,1.2-1.5,1c-3.3-0.7-3.9-3.5-3.9-3.5c-0.4,0.2-1.1-0.3-1.1-0.3
					s-1.4,1.4-2.2,1.5c0.4,0.7,0,1.2-0.1,1.3c0.3,0.6-0.2,4.9-5.1,4.5c-2.1-0.3-2.7-0.8-2.7-0.8s-1.1-1.4-2.1-1.3
					c-0.2,1.1-1.7,2.1-2.6,1.5c0,0-2.5,0.6-2.2-0.9c-0.8-0.2-0.8-1.1-0.8-1.1h-2.6c0,0-0.4,1.4-6.3,1.4
					C100.9,35,97.3,33.2,94.9,31.6z"/>
				<path class="st8" d="M113.2,25.6c0,0.5,0.8,1.4,0.8,1.4s0,0,0.4,1c-1.3,1.4,1.2,2,1.2,2s0.3,0.9,0.9,1.3
					c-0.1,1.8,1.1,1.7,1.1,1.7s-3.8,0.5-9.3-1.9c-4.6-2-5.1-3.3-4.8-4.1C103.3,27.1,105.6,22,113.2,25.6z"/>
				<g>
					<path class="st9" d="M108.1,18.1c-0.1-0.1-0.2-0.3-0.4-0.5c0,0.5,0,1.4-0.6,2.4c0.3,0.1,0.5,0.2,0.7,0.3
						C108.2,19.6,108.2,18.6,108.1,18.1z"/>
					<path class="st9" d="M105.8,16.3c-0.4-0.1-0.8-0.1-1.1,0.3c-0.2,0.3-0.1,0.7,0.2,1.2C105.5,17.4,105.7,16.5,105.8,16.3z"/>
					<path class="st9" d="M107.5,17.4c-0.2-0.2-0.5-0.5-0.8-0.7c0,0.5-0.1,1.9-0.7,2.5c0.3,0.3,0.6,0.5,0.8,0.6c0,0,0,0,0.1,0
						C107.1,19.5,107.6,18.3,107.5,17.4z"/>
					<path class="st9" d="M106.4,16.6C106.4,16.6,106.4,16.6,106.4,16.6c0,0-0.1-0.1-0.3-0.2c-0.2,0.8-0.8,1.4-1.1,1.6
						c0.2,0.4,0.5,0.7,0.8,1C106,18.8,106.5,18,106.4,16.6z"/>
				</g>
				<g>
					<path class="st8" d="M120.7,14.7c-0.6,0.2-1.6,0.1-2.3,0c0,0.7,0.5,1.5,0.5,1.5s0.4-0.6,0.5-0.7c0.1-0.1,0.5-0.1,0.6,0
						c0.1,0.2,0.4,0.4,0.4,0.4s0.3-0.1,0.7-0.1C120.9,15.4,120.7,15,120.7,14.7z"/>
					<path class="st3" d="M121.5,15.7c0.5-0.1,1.3-0.2,1.9-0.1c0,0-2.1,0.4-2.5,0.9c1,0.8,5,5.8,5.9,8.1c2-1.1,3.4-3,3.4-3
						s-1.1,2.8-0.9,4.2c1.7,0,4.5,0.4,4.5,0.4s0.3-2.7-0.8-5.2c-1.1-2.4-4.6-5.2-8.4-5.3c-0.2-1.2-1.5-3.8-2.4-4.7
						c-0.9-0.8-4.5-2.2-5.3-2.2c-0.4,0.4-0.6,1-0.6,1s0.1-0.9,0.3-1.2c-0.5-0.4-2.4-1.8-2.9-2c-0.4-0.2-0.8-0.7-1.1,0.2
						c-0.3,0.9,0.1,4,1.9,5.6c1.2,1.1,3.2,2.1,6.6,1.6C121.1,14.2,121,15,121.5,15.7z"/>
				</g>
				<path class="st3" d="M115.8,21.9c-0.9,0.3-1.2,2.3-1.2,2.8c-1.7-5.3,3.8-7.7,3.8-7.7s-1.3,4.4,1.2,7.3c-0.5,0-0.9,0-0.9,0
					S117,21.5,115.8,21.9z"/>
				<path class="st5" d="M115.1,21.6c0,0,0.6-1,1.4-0.6c0.3,0.2,0.3,0.4,0.3,0.4l0.5-0.1c0,0-0.3-0.8-1-0.9
					C115.6,20.4,115.1,21.6,115.1,21.6z"/>
				<path class="st8" d="M119,24.5c0,0,3.8,5.1,3.9,7.3c1.5,0.8,2.8,2,2.6,3.1c0.7,0.8,4.8,2.2,6.9-1.1c0.5-0.8,0.4-1.9,0.4-1.9
					s-0.8,0.6-1.9-0.1c-1.1-0.7-1.1-2.1-0.4-2.5c-0.8-0.8-3.1-1.3-5-0.7c0,0,1-0.7,2.2-0.6c0,0-0.6-0.9-2.1-0.6c0,0,0.8-0.4,1.3-0.3
					c-0.2-0.3-0.3-0.6-1.1-0.5c-0.8,0.1-3.3-0.3-4.4-1.1c-0.8-0.5-1.4-1.1-1.4-1.1L119,24.5z"/>
				<g>
					<path class="st5" d="M133.1,30.1c1.6-0.4,2.9-2.7,2.9-2.7s-0.6-1.1-7.8-1c-0.3,0-1.1-0.7-1.7-0.7c-0.4-1.2-2.8-5.1-4.5-7.2
						c-1.8-2.1-2.4-2.9-2.7-2.5c-0.2,0.3-1,2.6-0.7,4.6c0.3,2,1.7,4.3,4.4,5.2c1.1,0.4,2.7,0.5,3.2,0.4c0.8,0.1,1.1,0.6,1.1,0.9
						c0.7,0.2,0.7,0.9,0.7,0.9s2.1,0,2.8,1C131,29,132.4,28.8,133.1,30.1z"/>
					<path class="st3" d="M119.6,16.2c0.2,0.1,0.8,0.8,1.5,1.6c0.2,0.3,0.5,0.6,0.8,0.9c1.7,2,4.1,5.9,4.5,7.1l0.1,0.2h0.2
						c0.3,0,0.6,0.2,1,0.4c0.3,0.2,0.5,0.3,0.7,0.3l0,0c0.3,0,0.6,0,0.9,0c4.8,0,6.2,0.6,6.6,0.8c-0.3,0.5-1.3,1.9-2.4,2.3
						c-0.6-0.9-1.6-1-2-1c-0.1,0-0.1,0-0.1,0c-0.7-0.8-2.2-1-2.7-1c-0.1-0.2-0.3-0.6-0.7-0.8c-0.1-0.4-0.6-0.8-1.3-0.9l-0.1,0
						l-0.1,0c-0.1,0-0.2,0-0.4,0c-0.6,0-1.7-0.1-2.6-0.4c-2.7-0.8-3.9-3.1-4.2-5C118.6,18.7,119.4,16.5,119.6,16.2 M119.5,16
						c-0.1,0-0.1,0-0.2,0.1c-0.2,0.3-1,2.6-0.7,4.6c0.3,2,1.7,4.3,4.4,5.2c0.9,0.3,2,0.4,2.7,0.4c0.2,0,0.4,0,0.5,0
						c0.8,0.1,1.1,0.6,1.1,0.9c0.7,0.2,0.7,0.9,0.7,0.9s2.1,0,2.8,1c0,0,0.1,0,0.3,0c0.4,0,1.3,0.1,1.9,1c1.6-0.4,2.9-2.7,2.9-2.7
						s-0.5-1-6.9-1c-0.3,0-0.6,0-0.9,0c-0.3,0-1.1-0.7-1.7-0.7c-0.4-1.2-2.8-5.1-4.5-7.2C120.6,16.8,119.9,16,119.5,16L119.5,16z"/>
				</g>
				<path class="st8" d="M131.1,29.4c-0.4,0-0.8,0.5-0.5,1.2c0.3,0.7,1.1,1.1,1.9,1c0.7-0.1,0.6-1.1,0.2-1.5
					C132.4,29.8,131.6,29.4,131.1,29.4z"/>
				<g>
					<path class="st3" d="M115.4,26.2c0.1-0.5-0.1-0.8-0.3-1c-0.1-0.2-0.3-0.2-0.4-0.2c-0.1,0-0.5-0.1-0.8-0.1c-0.1,0-0.3,0-0.4,0.1
						c-0.1,0.1-0.3,0.2-0.3,0.5c0,0.3,0.1,0.9,0.5,1.2c0.2,0.2,0.5,0.2,0.8,0.2C114.9,27,115.3,26.7,115.4,26.2z"/>
					<path class="st3" d="M116.6,29c0-0.3,0-0.9-0.4-1.3c-0.2-0.2-0.4-0.3-0.7-0.3c0,0-0.1,0-0.1,0c-0.3,0-1.2,0.5-1.4,1.2l0,0l0,0
						c-0.2,0.9,0.5,1.1,0.7,1.2c0.2,0.1,0.4,0.1,0.5,0.1C116,29.9,116.5,29.6,116.6,29z"/>
					<path class="st3" d="M118.9,31.5c-0.2-0.5-0.6-1-1.3-1c-0.1,0-0.2,0-0.2,0c-0.4,0.1-1.1,0.5-1,1.8l0,0l0,0
						c0.1,0.5,0.5,0.8,1,0.8c0.1,0,0.3,0,0.4,0c0.4-0.1,0.8-0.4,1-0.8C118.9,32.1,119,31.8,118.9,31.5z"/>
				</g>
				<g>
					<path class="st8" d="M114.6,25.5c0,0-0.7-0.1-0.9-0.1c-0.1,0.1,0,0.7,0.2,0.9c0.2,0.2,0.8,0.2,0.9-0.2
						C114.9,25.8,114.7,25.5,114.6,25.5z"/>
				</g>
				<g>
					<path class="st8" d="M115.4,27.9c-0.1,0-0.8,0.4-1,0.9c-0.1,0.3,0,0.5,0.3,0.6c0.4,0.1,1.2,0,1.2-0.4
						C116.1,28.5,115.9,27.9,115.4,27.9z"/>
				</g>
				<g>
					<path class="st8" d="M117.4,31.1c-0.2,0-0.7,0.3-0.5,1.2c0.1,0.4,0.4,0.4,0.8,0.3c0.4-0.1,0.8-0.6,0.7-0.9
						C118.3,31.4,118,31,117.4,31.1z"/>
				</g>
				<g>
					<path class="st3" d="M139.3,28.9c0-2-0.8-4.1-1.9-4.9c-1.1-0.8-2.6-1.1-3.4-1.1c0,0,0.2,1.4,0.1,2.5c1,0.5,3.1,0.6,3.1,0.6
						c-0.3,0.5-0.3,2.6-0.3,2.6s0.2,2.4,2.7,3.4c1.5,0.6,1.9,0.4,1.9,0.2C141.7,32.1,140.5,29.5,139.3,28.9z"/>
					<path class="st8" d="M136.9,26.5c-1.4-0.1-2.4-0.4-2.7-0.6c0,0.1,0,0.3,0,0.4c1.2,0.3,2.4,0.7,2.4,0.8c0,0.1-0.4,1-0.8,1.4
						c0.3,0.3,0.6,0.3,0.9,0.3C136.6,28.3,136.6,27.3,136.9,26.5z"/>
				</g>
				<g>
					<path class="st8" d="M95.3,28.9c-0.9-0.6-0.5-1.3,0-1.5c0.5-0.2,0.9-0.7,0.9-0.7s-1-0.6-1.2-0.8c-0.2,0.4-0.7,0.8-0.7,0.8
						c0.2-0.3,0.6-1.8,0.1-1.8c-0.5,0-1.1,0.6-1.5,1.6c-0.4,0.9-0.2,2.4,1.5,4C94.5,29.7,95.1,29.1,95.3,28.9z"/>
					<path class="st8" d="M97.4,25.6c-0.6,0.8-1.1,1.7-1.7,2.1c-1.4,0.9,1.8,2,2.6,1.4c0.4-0.3,1-0.6,1.5-0.8
						C99.8,27.7,99.3,26.1,97.4,25.6z"/>
					<path class="st3" d="M103.5,28.9c-1.9-1.8,0.8-3.7,0.8-3.7s-1.6-2.1-4.1-1.7c-1.1,0.2-1.9,0.9-2.5,1.6c0.6,0.2,2.5,1.1,2.5,3
						c0.4-0.1,0.8-0.2,1.1-0.3c0.1-0.4,0.5-0.9,0.5-0.9c-0.3,0.7,0,1.7,0,1.7c-1.1-0.6-2.3,0.4-3.1,0.9C98,30,97,29.8,95.6,29.1
						c0,0,0,0,0,0c-0.6,0.4-0.9,1.1-1,1.6c4.5,3.6,9.7,3.7,13.8,3.8c4.1,0.1,4.7-0.1,6.1-0.8C111,33.2,105.5,30.9,103.5,28.9z"/>
				</g>
				<path class="st3" d="M113.2,24.8c0,0-1-0.8-1.6-1.8c-0.5,0.2-2,0.6-3.5,0.6c0,0.1,0.1,0.2,0.2,0.3c0,0,3.2,0.2,4.8,1.2
					C113,24.9,113.2,24.8,113.2,24.8z"/>
				<g>
					<path class="st8" d="M111.2,21.7c-0.3-1.2-0.5-2.7-0.8-3.1c-0.4-0.6-1-0.1-0.9,0.7C109.3,19,109,19,109,19l0.3,0.5
						c0,0,0.5,0.1,0.7,0.5c0,0-0.8-0.3-1,0c-0.2,0.3,0,1.2,0,1.2l-0.4-0.3c0,0-1-0.1-1.3-0.4c-0.3,0.5-0.1,0.7,0.3,0.7
						c0.2-0.1,0.4-0.2,0.4-0.2s-0.2,0.2-0.1,0.6c0,0.3,0,1.1,0.2,1.7c0.5,0,2.4-0.2,3.4-0.8c0-0.1-0.1-0.2-0.1-0.4
						c-0.5,0.3-1.5,0.4-1.5,0.4C110.6,22.4,111,21.9,111.2,21.7z"/>
				</g>
				<path class="st8" d="M126.9,25.2c0,0,1.1,0.4,1.4,0.7c0.5,0,0.5,0,0.5,0s0-1.6,0.6-2.9c-1,1.1-2.3,1.9-2.6,2L126.9,25.2z"/>
				<path class="st3" d="M116.2,21.8L116.2,21.8c-1.7,0-1.8,3.5-1.8,3.6c0,4.1,3.9,7.1,4.1,7.2l0.4,0.3l0.3-0.3l0.2-0.2
					c0.4-0.4,0.9-0.6,1.4-0.6c0.9,0,1.6,0.5,1.6,0.5l1.4,1l-0.6-1.6c0-0.1-0.9-2.4-2.3-4.7C118.1,22.5,116.9,21.8,116.2,21.8
					C116.2,21.8,116.2,21.8,116.2,21.8L116.2,21.8z"/>
				<g>
					<path class="st5" d="M116.2,22.3C116.2,22.3,116.2,22.3,116.2,22.3c1.1,0.1,2.9,2.7,4.2,5c1.4,2.3,2.2,4.6,2.2,4.6
						s-0.8-0.6-1.9-0.6c-0.6,0-1.2,0.2-1.8,0.7c-0.2,0.2-0.2,0.2-0.2,0.2s-3.9-2.9-3.9-6.8C114.9,24.9,115.2,22.3,116.2,22.3"/>
				</g>
				<path class="st3" d="M115.9,23.3l0.5,0.2c0,0-0.4,1.5-0.2,2.3c1.6,0.3,1.8,0.3,1.8,0.3l-0.1,1.3l1.2,0.5l-1.6-0.1l0-1.2
					l-1.7-0.3C115.8,26.2,115.4,25.2,115.9,23.3z"/>
				<path class="st8" d="M125.3,34.8c-0.2-0.4-1.4-1.2-2-1.2c0-0.3-0.2-0.6-0.2-0.6s0.1,0.5-0.4,1.2c-1,1.6-1.9,1-1.9,1
					c-0.7,0.2-1.9,0.2-1.8-0.7c-0.6,0-1-0.8-0.2-1.7c0,0,2-2.1,4.2-0.2C124.1,32.7,125.3,33.9,125.3,34.8z"/>
				<g>
					<path class="st5" d="M104.6,7c0,0,1.1,0,1.7,1c0.6,1-0.4,2.4-1.6,2.6c-1.2,0.2-1.7,0.3-1.9,0.9c-0.1,0.6,0.1,1,0.5,1.2
						c0.4,0.2,0.8,0.5,0.6,1c0,0-0.1-0.5-0.9-0.5c-0.8-0.1-2.2-0.9-1.8-2.4c0.4-1.5,1.8-2.1,2.9-2.1c1,0,1.3-0.4,1.3-0.8
						C105.4,7.4,105.1,7.1,104.6,7z"/>
					<path class="st3" d="M105.7,8.9c0,0.1,0,0.1-0.1,0.2c-0.2,0.4-0.6,0.7-1,0.8c-1.2,0.2-2.3,0.3-2.5,1.5c0,0.1,0,0.2,0,0.3
						c-0.1-0.2-0.1-0.4,0-0.7c0.3-1.1,1.5-1.5,2.1-1.5C104.9,9.3,105.4,9.1,105.7,8.9 M104.7,7C104.6,7,104.6,7,104.7,7
						c0.5,0.1,0.8,0.5,0.8,0.8c0,0.3-0.3,0.7-1.3,0.8c-1,0-2.5,0.6-2.9,2.1c-0.4,1.5,1,2.3,1.8,2.4c0.8,0.1,0.9,0.5,0.9,0.5
						c0.2-0.4-0.3-0.7-0.6-1c-0.4-0.2-0.6-0.7-0.5-1.2c0.1-0.6,0.7-0.7,1.9-0.9c1.2-0.2,2.2-1.6,1.6-2.6C105.8,7,104.7,7,104.7,7
						L104.7,7z"/>
				</g>
				<g>
					<path class="st5" d="M102.8,5c0,0-1.2,0.1-1.2,1.1c0,1,1.7,1.6,2.5,1.6c0,0-2.2,0.8-3.7-0.1C98.8,6.7,100.8,4.4,102.8,5z"/>
					<path class="st3" d="M100.9,5.9c0,0,0,0.1,0,0.1c0,0.5,0.2,0.9,0.5,1.2c-0.3,0-0.6-0.1-0.8-0.3c-0.2-0.1-0.2-0.3-0.2-0.4
						C100.5,6.4,100.7,6.1,100.9,5.9 M102.1,4.9c-1.7,0-3.2,1.9-1.8,2.7c0.6,0.3,1.2,0.4,1.8,0.4c1.1,0,2-0.3,2-0.3
						c-0.7,0-2.5-0.6-2.5-1.6c0-1,1.2-1.1,1.2-1.1C102.6,4.9,102.3,4.9,102.1,4.9L102.1,4.9z"/>
				</g>
				<path class="st3" d="M131.8,30.1c0,0,0.7,0.3,0.8,0.7c0.1,0.4-0.5,0.6-0.9,0.4C131.7,31.2,132.2,30.7,131.8,30.1z"/>
			</g>
			<path class="st3" d="M119.9,17.7c0,0-0.8,2.7,0.2,4.3c0,0-0.1-3.8,3.4,0.6C123.5,22.6,121.3,18.9,119.9,17.7z"/>
			<path class="st3" d="M124.4,24.1c0,0,0.8,1,0.9,1.2c0,0-1.6-0.2-2.1-0.5C123.1,24.8,124.3,25.1,124.4,24.1z"/>
		</g>
	</g>
	<rect x="0" y="0" class="st10" width="150" height="70"/>
</g>
</svg>
